<svg id="Layer_1" data-name="Layer 1" xmlns="http://www.w3.org/2000/svg" viewBox="0 0 800 800">
  <defs>
    <style>
      .cls-1 {
        fill: #7a2d25;
      }
    </style>
  </defs>
  <path class="cls-1" d="M419.5,686.99c-158.68,0-269.5-113.61-269.5-276.27,0-78.54,27.46-152.69,77.31-208.78,50.96-57.34,119.72-88.92,193.61-88.92,58.32,0,114.85,13.67,163.46,39.53,4.81,2.56,8.32,6.88,9.87,12.18,1.57,5.35.9,11.19-1.83,16.03l-27.63,48.97c-3.6,6.38-10.39,10.34-17.72,10.34-5.81,0-11.34-2.51-15.17-6.88-34.58-39.38-75.61-81.39-125.14-81.39h-1.11c-117.07,0-134.55,149.47-134.55,238.57,0,161.2,59.24,249.97,166.81,249.97,44.08,0,92.36-16.84,132.46-46.2,3.51-2.57,7.64-3.93,11.94-3.93,6.12,0,11.77,2.76,15.51,7.58,6.65,8.59,5.19,20.95-3.26,27.57-52.32,40.88-111.22,61.62-175.07,61.62Z"/>
  <path class="cls-1" d="M630.29,644.83c-11.26,0-20.52,8.69-20.52,21.16,0,11.75,8.13,20.68,19.71,20.68s20.52-8.69,20.52-21.16c0-11.67-8.05-20.68-19.71-20.68Z"/>
</svg>