<svg id="Layer_1" data-name="Layer 1" xmlns="http://www.w3.org/2000/svg" viewBox="0 0 2000 781.6">
  <defs>
    <style>
      .cls-1 {
        fill: #fff;
      }
    </style>
  </defs>
  <path class="cls-1" d="M1138.31,154.43c32.82,14.91,187.37,114,373.45,114,172.19,0,365.8-97.85,377.16-102.7,5.24-2.24,12.16-6.32,12.16-12.31v-42.55c0-4.75-5.92-9.42-11.22-11.66-12.06-5.07-18.29-8.37-25.75-13.55l13.58-33.96c.82-2.06-1.66-3.85-3.36-2.42l-29.91,25.4c-12.92-5.49-18.88-8.02-36.4-15.03l11.22-31.45c.72-2.03-1.68-3.73-3.35-2.37l-31.9,25.93c-14.91-5.52-20.14-7.5-37.63-12.89l6.75-32.11c.43-2.05-2.05-3.43-3.56-1.97l-27.7,26.69C1661.22,14.08,1588.18,0,1510.21,0,1339.7,0,1171.51,105.87,1138.68,120.18c-3.3,1.44-4.88,5.2-4.95,8.81l-.3,16.3c-.07,3.68,1.51,7.62,4.87,9.14ZM1836.44,124.88c3.14,2.33,5.52,5.43,5.52,9.34,0,4.3-3.16,7.08-6.49,9.81-13.88,11.39-52.15,32.31-101.13,52.56,5.13-18.89,8.15-39.95,8.15-62.37s-3.08-44.2-8.37-63.33c51.27,21.92,89.54,44.51,102.32,53.99ZM1159.43,129.42c46.7-27.9,211.76-110.82,352.33-110.82,31.71,0,63.89,4.19,95.1,10.92-15.6,26.26-25.43,63.36-25.43,104.7s9.58,77.53,24.85,103.73c-32.29,7.29-64.62,11.87-94.56,11.88-149.27.05-307.49-76.85-352.31-103.68-6.32-3.79-6.3-12.95.02-16.73Z"/>
  <path class="cls-1" d="M174.16,165.73c11.36,4.85,204.96,102.69,377.16,102.7,186.08,0,340.63-99.09,373.45-114,3.36-1.52,4.94-5.46,4.87-9.14l-.3-16.3c-.07-3.6-1.64-7.36-4.95-8.81C891.56,105.87,723.37,0,552.86,0,474.89,0,401.85,14.08,341.23,31.5l-27.7-26.69c-1.51-1.46-3.99-.08-3.56,1.97l6.75,32.11c-17.49,5.39-22.72,7.36-37.63,12.89l-31.9-25.93c-1.67-1.36-4.07.34-3.35,2.37l11.22,31.45c-17.52,7.01-23.48,9.54-36.4,15.03l-29.91-25.4c-1.69-1.44-4.18.35-3.36,2.42l13.58,33.96c-7.46,5.17-13.69,8.47-25.75,13.55-5.3,2.23-11.22,6.91-11.22,11.66v42.55c0,5.99,6.92,10.08,12.16,12.31ZM903.67,146.15c-25.82,15.46-89.3,47.51-166.99,71.92,9.51-23.64,15.2-52.51,15.2-83.85,0-29.49-5.17-56.64-13.68-79.45,75.62,25.94,139.21,58.98,165.44,74.65,6.32,3.78,6.35,12.95.02,16.73ZM226.63,124.88c28.3-21,181.42-106.28,324.69-106.28,22.27,0,45.14,2.09,68.07,5.7-17.46,26.42-28.57,65.82-28.57,109.91s11.29,84.24,29.02,110.66c-4.23,1.71-43,4.97-68.48,4.96-124.91-.05-291.22-79.11-323.76-105.81-3.32-2.73-6.49-5.51-6.49-9.81,0-3.91,2.38-7.01,5.52-9.34Z"/>
  <path class="cls-1" d="M796.67,376.96h-189.19c-4.47,0-8.09,3.62-8.09,8.09v177.21c0,4.47-3.62,8.1-8.09,8.1h-125.1c-4.47,0-8.09-3.63-8.09-8.1v-177.21c0-4.47-3.62-8.09-8.09-8.09h-56.88c-4.47,0-8.09,3.62-8.09,8.09v386.46c0,4.47,3.62,8.09,8.09,8.09h56.88c4.47,0,8.09-3.62,8.09-8.09v-176.94c0-4.47,3.63-8.09,8.09-8.09h125.1c4.47,0,8.09,3.62,8.09,8.09v176.94c0,4.47,3.63,8.09,8.09,8.09h189.19c4.47,0,8.09-3.62,8.09-8.09s-3.62-8.09-8.09-8.09h-114.5c-4.47,0-8.09-3.62-8.09-8.09v-160.76c0-4.47,3.63-8.09,8.09-8.09h87.21c4.47,0,8.09-3.63,8.09-8.09v-.2c0-4.47-3.62-8.09-8.09-8.09h-87.21c-4.47,0-8.09-3.63-8.09-8.09v-160.57c0-4.47,3.63-8.09,8.09-8.09h114.5c4.47,0,8.09-3.63,8.09-8.09v-.19c0-4.47-3.62-8.09-8.09-8.09Z"/>
  <path class="cls-1" d="M1690.36,376.95h-188.38c-4.47,0-8.09,3.63-8.09,8.09v386.46c0,4.47,3.63,8.09,8.09,8.09h188.38c4.47,0,8.09-3.62,8.09-8.09s-3.62-8.09-8.09-8.09h-114.49c-4.47,0-8.09-3.63-8.09-8.09v-160.76c0-4.47,3.62-8.09,8.09-8.09h87.21c4.47,0,8.09-3.63,8.09-8.09v-.2c0-4.47-3.62-8.09-8.09-8.09h-87.21c-4.47,0-8.09-3.62-8.09-8.09v-160.57c0-4.47,3.62-8.09,8.09-8.09h114.49c4.47,0,8.09-3.63,8.09-8.09v-.2c0-4.47-3.62-8.09-8.09-8.09Z"/>
  <path class="cls-1" d="M1316.3,581.45c-2.49-3.15-2.75-7.51-.66-10.93l116.93-180.56c3.2-5.2,3.32-8.33-2.78-8.7l-6.25-.38c-2.94-.18-5.74,1.24-7.32,3.72l-117.98,176.6c-4.35,6.82-14.91,3.74-14.91-4.35v-171.79c0-4.47-3.62-8.09-8.09-8.09h-57.7c-4.47,0-8.09,3.63-8.09,8.09v386.46c0,4.47,3.62,8.09,8.09,8.09h57.7c4.47,0,8.09-3.62,8.09-8.09v-131.19c0-7.71,9.75-11.05,14.48-4.97l101.54,141.13c1.53,1.97,3.89,3.13,6.39,3.13h42.19c6.74,0,10.53-7.77,6.37-13.08l-138.01-185.07Z"/>
  <path class="cls-1" d="M1991.91,376.51h-1.17c-4.48,0-8.11,3.65-8.09,8.13l1.45,305.31c.04,8.13-10.59,11.24-14.93,4.37l-200.34-314.04c-1.48-2.35-4.07-3.77-6.84-3.77h-1.87c-4.47,0-8.09,3.62-8.09,8.09v386.46c0,4.47,3.63,8.09,8.09,8.09h.33c4.47,0,8.09-3.63,8.09-8.09l1.23-244.93c0-8.21,10.81-11.2,15.04-4.16l156.97,250.91c3.65,4.83,3.64,7.17,10.8,7.17l39.35-.9c4.47,0,8.09-3.63,8.09-8.09v-386.46c0-4.46-3.62-8.09-8.09-8.09Z"/>
  <path class="cls-1" d="M303.67,724.03c-29.7,21.75-65.8,34.69-99.67,34.69-82.94,0-126.93-69.41-126.93-187.45s38.33-179.67,104.26-179.16c38.08,0,68.79,31.01,95.23,61.12,4.19,4.77,11.83,3.94,14.96-1.59l20.1-35.64c2.57-4.56.99-10.47-3.62-12.92-35.24-18.74-75.8-28.12-116.36-28.12C82.43,374.96,0,472.2,0,586.08s80.88,195.52,190.6,195.52c51.77,0,93.18-19.58,124-43.67,3.79-2.97,4.36-8.5,1.41-12.31-2.98-3.84-8.42-4.46-12.33-1.59Z"/>
  <path class="cls-1" d="M1130.07,724.03c-29.7,21.75-65.79,34.69-99.67,34.69-82.94,0-126.93-69.41-126.93-187.45s38.33-179.67,104.27-179.16c38.07,0,68.79,31.01,95.23,61.12,4.19,4.77,11.83,3.94,14.96-1.59l20.1-35.64c2.57-4.56.99-10.47-3.63-12.92-35.24-18.74-75.8-28.12-116.36-28.12-109.21,0-191.63,97.24-191.63,211.12s80.88,195.52,190.6,195.52c51.77,0,93.17-19.58,124-43.67,3.79-2.97,4.36-8.5,1.41-12.31-2.98-3.84-8.42-4.46-12.34-1.59Z"/>
</svg>