<svg id="Layer_1" data-name="Layer 1" xmlns="http://www.w3.org/2000/svg" viewBox="0 0 2000 310">
  <defs>
    <style>
      .cls-1 {
        fill: #7a2d25;
      }
    </style>
  </defs>
  <path class="cls-1" d="M1122.79,178.25c37.74,17.15,215.49,131.1,429.48,131.1,198.03,0,420.68-112.53,433.75-118.11,6.02-2.57,13.98-7.27,13.98-14.16v-48.94c0-5.46-6.81-10.84-12.91-13.4-13.87-5.83-21.04-9.63-29.62-15.58l15.62-39.06c.95-2.37-1.91-4.43-3.86-2.78l-34.4,29.22c-14.85-6.31-21.71-9.23-41.86-17.29l12.91-36.17c.83-2.33-1.93-4.29-3.85-2.72l-36.68,29.83c-17.15-6.35-23.16-8.62-43.28-14.82l7.76-36.92c.5-2.36-2.36-3.94-4.1-2.27l-31.85,30.69C1724.16,16.85,1640.17.65,1550.5.65c-196.1,0-389.53,121.76-427.28,138.22-3.8,1.66-5.61,5.98-5.69,10.13l-.34,18.75c-.08,4.24,1.74,8.76,5.6,10.51ZM1925.68,144.26c3.61,2.68,6.35,6.24,6.35,10.74,0,4.95-3.64,8.14-7.46,11.28-15.97,13.1-59.98,37.16-116.3,60.45,5.9-21.72,9.37-45.94,9.37-71.72s-3.55-50.83-9.63-72.83c58.97,25.21,102.98,51.18,117.67,62.09ZM1147.08,149.48c53.71-32.09,243.53-127.45,405.19-127.45,36.46,0,73.48,4.81,109.37,12.56-17.94,30.2-29.25,72.87-29.25,120.41s11.02,89.17,28.58,119.3c-37.14,8.38-74.31,13.65-108.75,13.66-171.67.06-353.62-88.38-405.17-119.24-7.27-4.35-7.25-14.9.03-19.24Z"/>
  <path class="cls-1" d="M13.98,191.25c13.06,5.58,235.72,118.1,433.75,118.11,213.99,0,391.74-113.96,429.48-131.1,3.86-1.75,5.68-6.27,5.6-10.51l-.34-18.75c-.08-4.15-1.89-8.47-5.69-10.13C839.03,122.41,645.6.65,449.5.65c-89.66,0-173.66,16.2-243.38,36.22l-31.85-30.69c-1.74-1.67-4.59-.09-4.1,2.27l7.76,36.92c-20.12,6.2-26.12,8.47-43.28,14.82l-36.68-29.83c-1.92-1.56-4.69.39-3.85,2.72l12.91,36.17c-20.15,8.06-27.01,10.98-41.86,17.29l-34.4-29.22c-1.95-1.65-4.81.4-3.86,2.78l15.62,39.06c-8.58,5.95-15.75,9.75-29.62,15.58C6.81,117.31,0,122.69,0,128.15v48.94C0,183.97,7.96,188.67,13.98,191.25ZM852.95,168.72c-29.69,17.78-102.7,54.64-192.04,82.71,10.93-27.18,17.48-60.39,17.48-96.43,0-33.91-5.94-65.13-15.73-91.37,86.96,29.84,160.09,67.83,190.26,85.85,7.27,4.35,7.3,14.89.03,19.24ZM74.32,144.26c32.54-24.16,208.65-122.23,373.4-122.23,25.61,0,51.92,2.4,78.29,6.56-20.08,30.38-32.86,75.7-32.86,126.4s12.99,96.88,33.38,127.26c-4.87,1.96-49.45,5.72-78.75,5.7-143.66-.06-334.91-90.97-372.34-121.69-3.82-3.14-7.46-6.33-7.46-11.28,0-4.49,2.74-8.06,6.35-10.74Z"/>
</svg>