<svg id="Layer_1" data-name="Layer 1" xmlns="http://www.w3.org/2000/svg" viewBox="0 0 2000 407">
  <defs>
    <style>
      .cls-1 {
        fill: #7a2d25;
      }
    </style>
  </defs>
  <path class="cls-1" d="M796.67,2.18h-189.19c-4.47,0-8.09,3.62-8.09,8.09v177.21c0,4.47-3.62,8.1-8.09,8.1h-125.1c-4.47,0-8.09-3.63-8.09-8.1V10.27c0-4.47-3.62-8.09-8.09-8.09h-56.88c-4.47,0-8.09,3.62-8.09,8.09v386.46c0,4.47,3.62,8.09,8.09,8.09h56.88c4.47,0,8.09-3.62,8.09-8.09v-176.94c0-4.47,3.63-8.09,8.09-8.09h125.1c4.47,0,8.09,3.62,8.09,8.09v176.94c0,4.47,3.63,8.09,8.09,8.09h189.19c4.47,0,8.09-3.62,8.09-8.09s-3.62-8.09-8.09-8.09h-114.5c-4.47,0-8.09-3.62-8.09-8.09v-160.76c0-4.47,3.63-8.09,8.09-8.09h87.21c4.47,0,8.09-3.63,8.09-8.09v-.2c0-4.47-3.62-8.09-8.09-8.09h-87.21c-4.47,0-8.09-3.63-8.09-8.09V26.65c0-4.47,3.63-8.09,8.09-8.09h114.5c4.47,0,8.09-3.63,8.09-8.09v-.19c0-4.47-3.62-8.09-8.09-8.09Z"/>
  <path class="cls-1" d="M1690.36,2.18h-188.38c-4.47,0-8.09,3.63-8.09,8.09v386.46c0,4.47,3.63,8.09,8.09,8.09h188.38c4.47,0,8.09-3.62,8.09-8.09s-3.62-8.09-8.09-8.09h-114.49c-4.47,0-8.09-3.63-8.09-8.09v-160.76c0-4.47,3.62-8.09,8.09-8.09h87.21c4.47,0,8.09-3.63,8.09-8.09v-.2c0-4.47-3.62-8.09-8.09-8.09h-87.21c-4.47,0-8.09-3.62-8.09-8.09V26.65c0-4.47,3.62-8.09,8.09-8.09h114.49c4.47,0,8.09-3.63,8.09-8.09v-.2c0-4.47-3.62-8.09-8.09-8.09Z"/>
  <path class="cls-1" d="M1316.3,206.67c-2.49-3.15-2.75-7.51-.66-10.93l116.93-180.56c3.2-5.2,3.32-8.33-2.78-8.7l-6.25-.38c-2.94-.18-5.74,1.24-7.32,3.72l-117.98,176.6c-4.35,6.82-14.91,3.74-14.91-4.35V10.27c0-4.47-3.62-8.09-8.09-8.09h-57.7c-4.47,0-8.09,3.63-8.09,8.09v386.46c0,4.47,3.62,8.09,8.09,8.09h57.7c4.47,0,8.09-3.62,8.09-8.09v-131.19c0-7.71,9.75-11.05,14.48-4.97l101.54,141.13c1.53,1.97,3.89,3.13,6.39,3.13h42.19c6.74,0,10.53-7.77,6.37-13.08l-138.01-185.07Z"/>
  <path class="cls-1" d="M1991.91,1.73h-1.17c-4.48,0-8.11,3.65-8.09,8.13l1.45,305.31c.04,8.13-10.59,11.24-14.93,4.37L1768.82,5.5c-1.48-2.35-4.07-3.77-6.84-3.77h-1.87c-4.47,0-8.09,3.62-8.09,8.09v386.46c0,4.47,3.63,8.09,8.09,8.09h.33c4.47,0,8.09-3.63,8.09-8.09l1.23-244.93c0-8.21,10.81-11.2,15.04-4.16l156.97,250.91c3.65,4.83,3.64,7.17,10.8,7.17l39.35-.9c4.47,0,8.09-3.63,8.09-8.09V9.82c0-4.46-3.62-8.09-8.09-8.09Z"/>
  <path class="cls-1" d="M303.67,349.26c-29.7,21.75-65.8,34.69-99.67,34.69-82.94,0-126.93-69.41-126.93-187.45S115.39,16.82,181.33,17.34c38.08,0,68.79,31.01,95.23,61.12,4.19,4.77,11.83,3.94,14.96-1.59l20.1-35.64c2.57-4.56.99-10.47-3.62-12.92C272.75,9.55,232.19.18,191.63.18,82.43.18,0,97.42,0,211.3s80.88,195.52,190.6,195.52c51.77,0,93.18-19.58,124-43.67,3.79-2.97,4.36-8.5,1.41-12.31-2.98-3.84-8.42-4.46-12.33-1.59Z"/>
  <path class="cls-1" d="M1130.07,349.26c-29.7,21.75-65.79,34.69-99.67,34.69-82.94,0-126.93-69.41-126.93-187.45s38.33-179.67,104.27-179.16c38.07,0,68.79,31.01,95.23,61.12,4.19,4.77,11.83,3.94,14.96-1.59l20.1-35.64c2.57-4.56.99-10.47-3.63-12.92C1099.16,9.55,1058.6.18,1018.04.18c-109.21,0-191.63,97.24-191.63,211.12s80.88,195.52,190.6,195.52c51.77,0,93.17-19.58,124-43.67,3.79-2.97,4.36-8.5,1.41-12.31-2.98-3.84-8.42-4.46-12.34-1.59Z"/>
</svg>